<?xml version="1.0" encoding="UTF-8"?>
<svg width="40px" height="27px" viewBox="0 0 40 27" version="1.1" xmlns="http://www.w3.org/2000/svg" xmlns:xlink="http://www.w3.org/1999/xlink">
    <!-- Generator: Sketch 50 (54983) - http://www.bohemiancoding.com/sketch -->
    <title>Icons/Tile/Trigger/API</title>
    <desc>Created with Sketch.</desc>
    <defs></defs>
    <g id="Icons/Tile/Trigger/API" stroke="none" stroke-width="1" fill="none" fill-rule="evenodd">
        <g id="event" transform="translate(10.000000, 4.000000)" fill="#47A0FB" fill-rule="nonzero">
            <path d="M14.1937891,10.1609375 C14.1248828,9.94882812 13.9415234,9.79421875 13.7207813,9.76214844 L11.4738281,9.43566406 L10.4671094,7.36140625 C10.3691016,7.15949219 10.1644141,7.03128906 9.93996094,7.03128906 C9.71550781,7.03128906 9.51082031,7.15949219 9.4128125,7.36140625 L8.40644531,9.43492187 L6.12132812,9.76195312 C5.89921875,9.79375 5.71476563,9.94957031 5.64632812,10.1632422 C5.57792969,10.376875 5.6375,10.6108594 5.79980469,10.7657812 L7.45816406,12.3488281 L7.04007812,14.6205078 C6.99960938,14.8403906 7.0878125,15.0641406 7.26742188,15.1973047 C7.44707031,15.3304687 7.68679687,15.3497266 7.88539062,15.2471094 L9.93769531,14.1862891 L11.9519141,15.2452344 C12.1490625,15.3489062 12.3879688,15.3317969 12.5683984,15.2010547 C12.7487891,15.0703516 12.8394141,14.8486719 12.8023438,14.6289844 L12.4171875,12.3488281 L14.0455469,10.7615625 C14.2052344,10.6058984 14.2627344,10.3730469 14.1937891,10.1609375 Z M11.3792969,11.7240234 C11.2415625,11.8582812 11.1785156,12.0515625 11.2105469,12.2412109 L11.4497656,13.6572656 L10.2126953,13.0069141 C10.0432813,12.9178516 9.84101563,12.9171484 9.67097656,13.0050391 L8.40894531,13.6573828 L8.66800781,12.2496875 C8.70375,12.0554297 8.63921875,11.8562109 8.49632813,11.7198047 L7.4815625,10.7511328 L8.88070313,10.5508203 C9.07339844,10.5232422 9.23984375,10.4017578 9.32484375,10.2266406 L9.94,8.95914062 L10.5551563,10.2266406 C10.6399609,10.4013672 10.8058203,10.5227344 10.9980469,10.5506641 L12.3774219,10.7510937 L11.3792969,11.7240234 Z" id="Shape"></path>
            <path d="M18.2421875,1.171875 L17.65625,1.171875 L17.65625,0.5859375 C17.65625,0.26234375 17.3939063,0 17.0703125,0 C16.7467187,0 16.484375,0.26234375 16.484375,0.5859375 L16.484375,1.171875 L14.1015625,1.171875 L14.1015625,0.5859375 C14.1015625,0.26234375 13.8392188,0 13.515625,0 C13.1920312,0 12.9296875,0.26234375 12.9296875,0.5859375 L12.9296875,1.171875 L10.5859375,1.171875 L10.5859375,0.5859375 C10.5859375,0.26234375 10.3235938,0 10,0 C9.67640625,0 9.4140625,0.26234375 9.4140625,0.5859375 L9.4140625,1.171875 L7.03125,1.171875 L7.03125,0.5859375 C7.03125,0.26234375 6.76890625,0 6.4453125,0 C6.12171875,0 5.859375,0.26234375 5.859375,0.5859375 L5.859375,1.171875 L3.515625,1.171875 L3.515625,0.5859375 C3.515625,0.26234375 3.25328125,0 2.9296875,0 C2.60609375,0 2.34375,0.26234375 2.34375,0.5859375 L2.34375,1.171875 L1.7578125,1.171875 C0.788554688,1.171875 0,1.96042969 0,2.9296875 L0,18.2421875 C0,19.2114453 0.788554688,20 1.7578125,20 L18.2421875,20 C19.2114453,20 20,19.2114453 20,18.2421875 L20,2.9296875 C20,1.96042969 19.2114453,1.171875 18.2421875,1.171875 Z M18.828125,18.2421875 C18.828125,18.5652734 18.5652734,18.828125 18.2421875,18.828125 L1.7578125,18.828125 C1.43472656,18.828125 1.171875,18.5652734 1.171875,18.2421875 L1.171875,17.65625 L18.828125,17.65625 L18.828125,18.2421875 Z M18.828125,17.6455751 L1.171875,17.6455751 L1.171875,5.859375 L18.828125,5.859375 L18.828125,17.6455751 Z M18.828125,4.6875 L1.171875,4.6875 L1.171875,2.9296875 C1.171875,2.60660156 1.43472656,2.34375 1.7578125,2.34375 L2.34375,2.34375 L2.34375,2.9296875 C2.34375,3.25328125 2.60609375,3.515625 2.9296875,3.515625 C3.25328125,3.515625 3.515625,3.25328125 3.515625,2.9296875 L3.515625,2.34375 L5.859375,2.34375 L5.859375,2.9296875 C5.859375,3.25328125 6.12171875,3.515625 6.4453125,3.515625 C6.76890625,3.515625 7.03125,3.25328125 7.03125,2.9296875 L7.03125,2.34375 L9.4140625,2.34375 L9.4140625,2.9296875 C9.4140625,3.25328125 9.67640625,3.515625 10,3.515625 C10.3235938,3.515625 10.5859375,3.25328125 10.5859375,2.9296875 L10.5859375,2.34375 L12.9296875,2.34375 L12.9296875,2.9296875 C12.9296875,3.25328125 13.1920312,3.515625 13.515625,3.515625 C13.8392187,3.515625 14.1015625,3.25328125 14.1015625,2.9296875 L14.1015625,2.34375 L16.484375,2.34375 L16.484375,2.9296875 C16.484375,3.25328125 16.7467187,3.515625 17.0703125,3.515625 C17.3939063,3.515625 17.65625,3.25328125 17.65625,2.9296875 L17.65625,2.34375 L18.2421875,2.34375 C18.5652734,2.34375 18.828125,2.60660156 18.828125,2.9296875 L18.828125,4.6875 Z" id="Shape"></path>
        </g>
    </g>
</svg>