<?xml version="1.0" encoding="UTF-8"?>
<svg width="40px" height="27px" viewBox="0 0 40 27" version="1.1" xmlns="http://www.w3.org/2000/svg" xmlns:xlink="http://www.w3.org/1999/xlink">
    <!-- Generator: Sketch 50 (54983) - http://www.bohemiancoding.com/sketch -->
    <title>Icons/Tile/Trigger/Audience Segment</title>
    <desc>Created with Sketch.</desc>
    <defs></defs>
    <g id="Icons/Tile/Trigger/Audience-Segment" stroke="none" stroke-width="1" fill="none" fill-rule="evenodd">
        <g id="user-list" transform="translate(10.000000, 3.000000)">
            <path d="M12.3792157,15.6626471 C11.5845098,15.1022549 10.6405882,14.6887908 9.61336601,14.4406863 C10.5661111,13.6154575 11.1843791,12.2953595 11.1843791,10.8104248 C11.1843791,8.31614379 9.4401634,6.2869281 7.29620915,6.2869281 C5.15235294,6.2869281 3.40810458,8.31614379 3.40810458,10.8104248 C3.40810458,12.2953922 4.02637255,13.6154902 4.97911765,14.4406863 C3.95189542,14.6887255 3.00797386,15.1022549 2.21316993,15.6626471 C0.785980392,16.6689216 0,18.026732 0,19.4859477 C0,19.807451 0.260653595,20.0681046 0.582156863,20.0681046 L14.0102614,20.0681046 C14.3317647,20.0681046 14.5924183,19.807451 14.5924183,19.4859477 C14.592451,18.026732 13.8064706,16.6689216 12.3792157,15.6626471 Z M4.57238562,10.8104248 C4.57238562,8.95816993 5.79424837,7.45124183 7.29617647,7.45124183 C8.79810458,7.45124183 10.0200327,8.95820261 10.0200327,10.8104248 C10.0200327,12.6627778 8.7980719,14.1697059 7.29617647,14.1697059 C5.79434641,14.1697386 4.57238562,12.6627778 4.57238562,10.8104248 Z M11.1843464,18.9037908 L11.1843464,17.8640523 C11.1843464,17.542549 10.9236928,17.2818954 10.6021895,17.2818954 C10.2806863,17.2818954 10.0200327,17.542549 10.0200327,17.8640523 L10.0200327,18.9037908 L4.57238562,18.9037908 L4.57238562,17.8640523 C4.57238562,17.542549 4.31173203,17.2818954 3.99022876,17.2818954 C3.66872549,17.2818954 3.4080719,17.542549 3.4080719,17.8640523 L3.4080719,18.9037908 L1.2251634,18.9037908 C1.405,18.0500327 1.97833333,17.2529085 2.88408497,16.614281 C4.05496732,15.7887255 5.62189542,15.3340523 7.29614379,15.3340523 C8.97055556,15.3340523 10.5374837,15.7886601 11.7082026,16.614281 C12.6139542,17.2529085 13.1873856,18.050098 13.3671242,18.9037908 L11.1843464,18.9037908 Z" id="Shape" fill="#47A0FB" fill-rule="nonzero"></path>
            <rect id="Rectangle-5" stroke="#47A0FB" fill="#FFFFFF" x="12.5" y="1.5" width="7" height="7" rx="1"></rect>
            <path d="M19.4178431,4.58526144 L12.9812418,4.58526144 C12.6597386,4.58526144 12.399085,4.84591503 12.399085,5.1674183 C12.399085,5.48901961 12.6597386,5.74957516 12.9812418,5.74957516 L19.4178105,5.74957516 C19.7393137,5.74957516 19.9999673,5.48901961 19.9999673,5.1674183 C20,4.84591503 19.7393464,4.58526144 19.4178431,4.58526144 Z" id="Shape" fill="#47A0FB" fill-rule="nonzero"></path>
            <path d="M19.4178431,4.15375817 L12.9812418,4.15375817 C12.6597386,4.15375817 12.399085,4.41441176 12.399085,4.73591503 C12.399085,5.0574183 12.6597386,5.3180719 12.9812418,5.3180719 L19.4178105,5.3180719 C19.7393137,5.3180719 19.9999673,5.0574183 19.9999673,4.73591503 C20,4.41444444 19.7393464,4.15375817 19.4178431,4.15375817 Z" id="Shape" fill="#47A0FB" fill-rule="nonzero" transform="translate(16.199526, 4.735915) rotate(90.000000) translate(-16.199526, -4.735915) "></path>
        </g>
    </g>
</svg>