<?xml version="1.0" encoding="UTF-8" standalone="no"?>
<svg width="13px" height="16px" viewBox="0 0 13 16" version="1.1" xmlns="http://www.w3.org/2000/svg" xmlns:xlink="http://www.w3.org/1999/xlink">
    <g stroke="none" stroke-width="1" fill="none" fill-rule="evenodd">
        <g transform="translate(-114.000000, -471.000000)" fill="#FFFFFF">
            <g transform="translate(0.000000, 120.000000)">
                <g transform="translate(0.000000, 83.000000)">
                    <path d="M122.888889,270.37037 L122.888889,269.188078 C122.888889,268.531921 122.35801,268 121.705249,268 L118.739195,268 C118.085489,268 117.555556,268.529718 117.555556,269.188078 L117.555556,270.37037 L116.37037,270.37037 L114,270.37037 L114,271.212963 L115.185185,271.212963 L115.185185,282.218164 C115.185185,283.202245 115.975681,284 116.963038,284 L123.481407,284 C124.463288,284 125.259259,283.208301 125.259259,282.218164 L125.259259,271.212963 L126.444444,271.212963 L126.444444,270.37037 L124.074074,270.37037 L122.888889,270.37037 Z M116,271.25 L116,282.110251 C116,282.739717 116.498814,283.25 117.112135,283.25 L123.262865,283.25 C123.87708,283.25 124.375,282.734375 124.375,282.110251 L124.375,271.25 L116,271.25 L116,271.25 Z M117.25,272.5 L117.25,282.149135 L118,282.149135 L118,272.5 L117.25,272.5 L117.25,272.5 Z M119.75,272.5 L119.75,282.149135 L120.5,282.149135 L120.5,272.5 L119.75,272.5 L119.75,272.5 Z M122.25,272.5 L122.25,282.149135 L123,282.149135 L123,272.5 L122.25,272.5 L122.25,272.5 Z M118.912284,268.75 C118.61555,268.75 118.375,268.989774 118.375,269.291101 L118.375,270.375 L122.125,270.375 L122.125,269.291101 C122.125,268.992259 121.890421,268.75 121.587716,268.75 L118.912284,268.75 L118.912284,268.75 Z" id="trash-can"></path>
                </g>
            </g>
        </g>
    </g>
</svg>